<svg width="230" height="148" viewBox="0 0 230 148" fill="none" xmlns="http://www.w3.org/2000/svg">
<g clip-path="url(#clip0_25_9)">
<path d="M89.611 106.456L73.8219 106.456L48.2469 61.5887L47.918 61.5887C48.0277 64.4137 48.1373 67.2387 48.2469 70.0636C48.4114 72.8886 48.5485 75.7136 48.6581 78.5386L48.6581 106.456L37.5564 106.456L37.5564 47.1314L53.2632 47.1314L78.756 91.5834L79.0027 91.5834C78.948 88.8138 78.8657 86.0719 78.756 83.3577C78.6464 80.6434 78.5368 77.9293 78.4271 75.2151L78.427 47.1314L89.6111 47.1314L89.611 106.456Z" fill="#990011"/>
<path d="M190.76 76.2121C190.759 86.2381 187.936 93.7991 182.29 98.8951C176.697 103.936 168.83 106.456 158.687 106.456L142.076 106.456L142.076 47.1314L160.496 47.1314C166.637 47.1314 171.955 48.2392 176.45 50.4549C181.001 52.6707 184.509 55.9387 186.977 60.2593C189.498 64.5244 190.76 69.842 190.76 76.2121ZM177.848 76.5445C177.849 69.9529 176.423 65.1338 173.572 62.0872C170.722 58.9853 166.583 57.4343 161.154 57.4343L154.493 57.4343L154.493 96.0701L159.838 96.0701C171.845 96.0701 177.848 89.5616 177.848 76.5445Z" fill="#990011"/>
<path d="M112.633 106.456L78.8344 106.456L78.8343 47.1314L112.633 47.1314L112.633 57.4343L91.2518 57.4343L91.2518 70.4791L111.153 70.4791L111.153 80.782L91.2518 80.782L91.2518 96.0701L112.633 96.0701L112.633 106.456Z" fill="#990011"/>
<path d="M144.114 106.456L110.315 106.456L110.315 47.1314L144.114 47.1314L144.114 57.4343L122.732 57.4343L122.732 70.4791L142.633 70.4791L142.633 80.782L122.732 80.782L122.732 96.0701L144.114 96.0701L144.114 106.456Z" fill="#990011"/>
</g>
<defs>
<clipPath id="clip0_25_9">
<rect width="148" height="230" fill="white" transform="translate(0 148) rotate(-90)"/>
</clipPath>
</defs>
</svg>
