<svg width="364" height="364" viewBox="0 0 364 364" fill="none" xmlns="http://www.w3.org/2000/svg">
<path d="M349.781 0H14.2188C6.36595 0 0 6.36595 0 14.2188V349.781C0 357.634 6.36595 364 14.2188 364H349.781C357.634 364 364 357.634 364 349.781V14.2188C364 6.36595 357.634 0 349.781 0Z" fill="#990011"/>
<path d="M150.719 154.616V137.144L199.859 108.843V108.479C196.765 108.6 193.671 108.721 190.577 108.843C187.483 109.025 184.389 109.176 181.295 109.298H150.719V97.0127H215.693V114.394L167.008 142.604V142.877C170.041 142.816 173.044 142.725 176.017 142.604C178.99 142.482 181.962 142.361 184.935 142.24H215.693V154.616H150.719Z" fill="#FCF6F5"/>
<path d="M183.843 266.546C172.862 266.545 164.581 263.421 159 257.173C153.479 250.984 150.719 242.279 150.719 231.055V212.673H215.693V233.057C215.693 239.852 214.48 245.737 212.053 250.711C209.626 255.747 206.047 259.629 201.315 262.36C196.644 265.15 190.82 266.546 183.843 266.546ZM183.479 252.258C190.698 252.259 195.976 250.681 199.313 247.526C202.71 244.372 204.409 239.792 204.409 233.785V226.414H162.094V232.329C162.094 245.615 169.222 252.258 183.479 252.258Z" fill="#FCF6F5"/>
<path d="M150.719 180.092V142.691H215.693V180.092H204.409V156.432H190.122V178.454H178.838V156.432H162.094V180.092H150.719Z" fill="#FCF6F5"/>
<path d="M150.719 214.928V177.527H215.693V214.928H204.409V191.268H190.122V213.29H178.838V191.268H162.094V214.928H150.719Z" fill="#FCF6F5"/>
</svg>
