<svg width="113" height="113" viewBox="0 0 113 113" fill="none" xmlns="http://www.w3.org/2000/svg">
<rect width="113" height="113" rx="20" fill="#FCF6F5"/>
<path d="M80.1057 71.5218C80.1057 72.6601 79.6535 73.7518 78.8487 74.5567C78.0438 75.3616 76.9521 75.8138 75.8138 75.8138H37.1862C36.0479 75.8138 34.9563 75.3616 34.1514 74.5567C33.3465 73.7518 32.8943 72.6601 32.8943 71.5218V47.9161C32.8943 46.7778 33.3465 45.6861 34.1514 44.8812C34.9563 44.0763 36.0479 43.6241 37.1862 43.6241H45.7701L50.0621 37.1862H62.9379L67.2299 43.6241H75.8138C76.9521 43.6241 78.0438 44.0763 78.8487 44.8812C79.6535 45.6861 80.1057 46.7778 80.1057 47.9161V71.5218Z" stroke="#990011" stroke-width="2" stroke-linecap="round" stroke-linejoin="round"/>
<path d="M56.5 67.2299C61.2408 67.2299 65.0839 63.3867 65.0839 58.646C65.0839 53.9052 61.2408 50.0621 56.5 50.0621C51.7593 50.0621 47.9161 53.9052 47.9161 58.646C47.9161 63.3867 51.7593 67.2299 56.5 67.2299Z" stroke="#990011" stroke-width="2" stroke-linecap="round" stroke-linejoin="round"/>
</svg>
