<svg width="171" height="66" viewBox="0 0 171 66" fill="none" xmlns="http://www.w3.org/2000/svg">
<path d="M58.3237 65.2537H40.8513L12.5503 16.1137H12.1863C12.3077 19.2077 12.429 22.3017 12.5503 25.3957C12.7323 28.4897 12.884 31.5837 13.0053 34.6777V65.2537H0.720276L0.720276 0.279724H18.1013L46.3117 48.9647H46.5847C46.5236 45.9319 46.4326 42.9289 46.3117 39.9557C46.1894 36.9826 46.0686 34.0109 45.9477 31.0377V0.279724H58.3237V65.2537Z" fill="#990011"/>
<path d="M170.254 32.1297C170.252 43.1109 167.128 51.3919 160.881 56.9727C154.691 62.4939 145.987 65.2537 134.762 65.2537H116.38V0.279724H136.764C143.559 0.279724 149.445 1.49258 154.418 3.91972C159.455 6.34686 163.336 9.92572 166.068 14.6577C168.857 19.3286 170.254 25.1526 170.254 32.1297ZM155.965 32.4937C155.967 25.2749 154.388 19.9969 151.233 16.6597C148.08 13.2629 143.5 11.5637 137.492 11.5637H130.121V53.8787H136.036C149.322 53.8787 155.965 46.7509 155.965 32.4937Z" fill="#990011"/>
<path d="M83.7994 65.2537H46.3984V0.279724H83.7994V11.5637H60.1394V25.8507H82.1614V37.1347H60.1394V53.8787H83.7994V65.2537Z" fill="#990011"/>
<path d="M118.635 65.2537H81.2344V0.279724H118.635V11.5637H94.9754V25.8507H116.997V37.1347H94.9754V53.8787H118.635V65.2537Z" fill="#990011"/>
</svg>
