<svg width="36" height="36" viewBox="0 0 36 36" fill="none" xmlns="http://www.w3.org/2000/svg">
<path d="M30.24 15.8399H31.68V34.1999C31.6762 34.6761 31.4854 35.1318 31.1486 35.4685C30.8119 35.8053 30.3562 35.9961 29.88 35.9999H1.8C1.32261 35.9999 0.864773 35.8103 0.527208 35.4727C0.189642 35.1351 0 34.6773 0 34.1999L0 6.11991C0 5.64252 0.189642 5.18469 0.527208 4.84712C0.864773 4.50955 1.32261 4.31991 1.8 4.31991H20.16V5.75991H1.8C1.70452 5.75991 1.61295 5.79784 1.54544 5.86535C1.47793 5.93287 1.44 6.02443 1.44 6.11991V34.1999C1.44 34.2954 1.47793 34.387 1.54544 34.4545C1.61295 34.522 1.70452 34.5599 1.8 34.5599H29.88C29.9755 34.5599 30.067 34.522 30.1346 34.4545C30.2021 34.387 30.24 34.2954 30.24 34.1999V15.8399ZM12.5568 18.5327L11.52 23.6159C11.4986 23.7205 11.5008 23.8286 11.5264 23.9323C11.5519 24.0359 11.6002 24.1326 11.6678 24.2153C11.7353 24.298 11.8204 24.3647 11.9169 24.4104C12.0134 24.4562 12.1188 24.4799 12.2256 24.4799H12.3696L17.4096 23.4575C17.5467 23.4269 17.6718 23.3568 17.7696 23.2559L32.6592 8.38071L27.6192 3.34071L12.744 18.1727C12.6484 18.2723 12.5834 18.3972 12.5568 18.5327ZM35.3376 2.51991L33.48 0.662312C33.0591 0.243743 32.4896 0.00878906 31.896 0.00878906C31.3024 0.00878906 30.7329 0.243743 30.312 0.662312L28.6272 2.31831L33.6672 7.35831L35.3376 5.75991C35.7562 5.339 35.9911 4.76952 35.9911 4.17591C35.9911 3.5823 35.7562 3.01283 35.3376 2.59191V2.51991Z" fill="#0E1D25"/>
</svg>
